HIERARCHY
ROOT Hips
{
  OFFSET -0.347901 96.7718 1.79791
  CHANNELS 6 Xposition Yposition Zposition Zrotation Xrotation Yrotation
  JOINT LeftUpLeg
  {
    OFFSET 8.91 -6.27 -2.145
    CHANNELS 3 Zrotation Xrotation Yrotation
    JOINT LeftUpLegRoll
    {
      OFFSET 0 -22.7323 0
      CHANNELS 3 Zrotation Xrotation Yrotation
      JOINT LeftLeg
      {
        OFFSET 0 -22.1464 0
        CHANNELS 3 Zrotation Xrotation Yrotation
        JOINT LeftLegRoll
        {
          OFFSET 0 -22.0919 0
          CHANNELS 3 Zrotation Xrotation Yrotation
          JOINT LeftFoot
          {
            OFFSET 0 -18.609 0
            CHANNELS 3 Zrotation Xrotation Yrotation
            JOINT LeftToeBase
            {
              OFFSET 0 -6.26232 12.9547
              CHANNELS 3 Zrotation Xrotation Yrotation
              End Site
              {
                OFFSET 0 0 5.96686
              }
            }
          }
        }
      }
    }
  }
  JOINT RightUpLeg
  {
    OFFSET -8.91 -6.27 -2.145
    CHANNELS 3 Zrotation Xrotation Yrotation
    JOINT RightUpLegRoll
    {
      OFFSET 0 -22.7323 0
      CHANNELS 3 Zrotation Xrotation Yrotation
      JOINT RightLeg
      {
        OFFSET 0 -22.1464 0
        CHANNELS 3 Zrotation Xrotation Yrotation
        JOINT RightLegRoll
        {
          OFFSET 0 -22.0919 0
          CHANNELS 3 Zrotation Xrotation Yrotation
          JOINT RightFoot
          {
            OFFSET 0 -18.609 0
            CHANNELS 3 Zrotation Xrotation Yrotation
            JOINT RightToeBase
            {
              OFFSET 0 -6.26232 12.9547
              CHANNELS 3 Zrotation Xrotation Yrotation
              End Site
              {
                OFFSET 0 0.000942417 5.96686
              }
            }
          }
        }
      }
    }
  }
  JOINT Spine
  {
    OFFSET 0 7.43174 -2.06162
    CHANNELS 3 Zrotation Xrotation Yrotation
    JOINT Spine1
    {
      OFFSET -1.68772e-005 12.1899 -1.41951
      CHANNELS 3 Zrotation Xrotation Yrotation
      JOINT Spine2
      {
        OFFSET 0 11.8846 -1.0903
        CHANNELS 3 Zrotation Xrotation Yrotation
        JOINT Spine3
        {
          OFFSET 1.84329e-005 10.5137 1.04001
          CHANNELS 3 Zrotation Xrotation Yrotation
          JOINT LeftShoulder
          {
            OFFSET 7 4.56855 2.0674
            CHANNELS 3 Zrotation Xrotation Yrotation
            JOINT LeftArm
            {
              OFFSET 10.7073 0 0
              CHANNELS 3 Zrotation Xrotation Yrotation
              JOINT LeftArmRoll
              {
                OFFSET 15.2612 0 0
                CHANNELS 3 Zrotation Xrotation Yrotation
                JOINT LeftForeArm
                {
                  OFFSET 12.0443 0 0
                  CHANNELS 3 Zrotation Xrotation Yrotation
                  JOINT LeftForeArmRoll
                  {
                    OFFSET 16.3277 0 0
                    CHANNELS 3 Zrotation Xrotation Yrotation
                    JOINT LeftHand
                    {
                      OFFSET 10.3694 0 0
                      CHANNELS 3 Zrotation Xrotation Yrotation
                      JOINT LeftHandThumb1
                      {
                        OFFSET 4.34876 -0.798502 4.28243
                        CHANNELS 3 Zrotation Xrotation Yrotation
                        JOINT LeftHandThumb2
                        {
                          OFFSET 2.51259 -0.536099 0.707454
                          CHANNELS 3 Zrotation Xrotation Yrotation
                          JOINT LeftHandThumb3
                          {
                            OFFSET 2.54314 0 0
                            CHANNELS 3 Zrotation Xrotation Yrotation
                            JOINT LeftHandThumb4
                            {
                              OFFSET 2.66675 0 0
                              CHANNELS 3 Zrotation Xrotation Yrotation
                              End Site
                              {
                                OFFSET 1 0 0
                              }
                            }
                          }
                        }
                      }
                      JOINT LeftHandIndex1
                      {
                        OFFSET 8.82198 0.199729 3.47167
                        CHANNELS 3 Zrotation Xrotation Yrotation
                        JOINT LeftHandIndex2
                        {
                          OFFSET 4.22532 0 -0.00026266
                          CHANNELS 3 Zrotation Xrotation Yrotation
                          JOINT LeftHandIndex3
                          {
                            OFFSET 2.65394 0 -0.000165163
                            CHANNELS 3 Zrotation Xrotation Yrotation
                            JOINT LeftHandIndex4
                            {
                              OFFSET 1.95822 0 -0.000122167
                              CHANNELS 3 Zrotation Xrotation Yrotation
                              End Site
                              {
                                OFFSET 1 0 0
                              }
                            }
                          }
                        }
                      }
                      JOINT LeftHandMiddle1
                      {
                        OFFSET 8.80988 0.50089 1.30468
                        CHANNELS 3 Zrotation Xrotation Yrotation
                        JOINT LeftHandMiddle2
                        {
                          OFFSET 4.86325 0 0
                          CHANNELS 3 Zrotation Xrotation Yrotation
                          JOINT LeftHandMiddle3
                          {
                            OFFSET 2.76524 0 0
                            CHANNELS 3 Zrotation Xrotation Yrotation
                            JOINT LeftHandMiddle4
                            {
                              OFFSET 2.00563 0 0
                              CHANNELS 3 Zrotation Xrotation Yrotation
                              End Site
                              {
                                OFFSET 1 0 0
                              }
                            }
                          }
                        }
                      }
                      JOINT LeftHandRing1
                      {
                        OFFSET 8.89376 0.37992 -0.793159
                        CHANNELS 3 Zrotation Xrotation Yrotation
                        JOINT LeftHandRing2
                        {
                          OFFSET 4.53776 0 -0.000282138
                          CHANNELS 3 Zrotation Xrotation Yrotation
                          JOINT LeftHandRing3
                          {
                            OFFSET 2.30453 0 -0.000143448
                            CHANNELS 3 Zrotation Xrotation Yrotation
                            JOINT LeftHandRing4
                            {
                              OFFSET 1.92335 0 -0.00012044
                              CHANNELS 3 Zrotation Xrotation Yrotation
                              End Site
                              {
                                OFFSET 1 0 0
                              }
                            }
                          }
                        }
                      }
                      JOINT LeftHandPinky1
                      {
                        OFFSET 8.88227 -0.313027 -2.49036
                        CHANNELS 3 Zrotation Xrotation Yrotation
                        JOINT LeftHandPinky2
                        {
                          OFFSET 3.0441 0 0
                          CHANNELS 3 Zrotation Xrotation Yrotation
                          JOINT LeftHandPinky3
                          {
                            OFFSET 1.9745 0 0
                            CHANNELS 3 Zrotation Xrotation Yrotation
                            JOINT LeftHandPinky4
                            {
                              OFFSET 1.66661 0 0
                              CHANNELS 3 Zrotation Xrotation Yrotation
                              End Site
                              {
                                OFFSET 1 0 0
                              }
                            }
                          }
                        }
                      }
                    }
                  }
                }
              }
            }
          }
          JOINT RightShoulder
          {
            OFFSET -7 4.56855 2.0673
            CHANNELS 3 Zrotation Xrotation Yrotation
            JOINT RightArm
            {
              OFFSET -10.7073 0 0
              CHANNELS 3 Zrotation Xrotation Yrotation
              JOINT RightArmRoll
              {
                OFFSET -15.2612 0 0
                CHANNELS 3 Zrotation Xrotation Yrotation
                JOINT RightForeArm
                {
                  OFFSET -12.0444 0 0
                  CHANNELS 3 Zrotation Xrotation Yrotation
                  JOINT RightForeArmRoll
                  {
                    OFFSET -16.3276 0 0
                    CHANNELS 3 Zrotation Xrotation Yrotation
                    JOINT RightHand
                    {
                      OFFSET -10.3694 0 0
                      CHANNELS 3 Zrotation Xrotation Yrotation
                      JOINT RightHandThumb1
                      {
                        OFFSET -4.34838 -0.798501 4.28282
                        CHANNELS 3 Zrotation Xrotation Yrotation
                        JOINT RightHandThumb2
                        {
                          OFFSET -2.51253 -0.536099 0.707679
                          CHANNELS 3 Zrotation Xrotation Yrotation
                          JOINT RightHandThumb3
                          {
                            OFFSET -2.54159 0 0.0888232
                            CHANNELS 3 Zrotation Xrotation Yrotation
                            JOINT RightHandThumb4
                            {
                              OFFSET -2.66512 0 0.0931403
                              CHANNELS 3 Zrotation Xrotation Yrotation
                              End Site
                              {
                                OFFSET 1 0 0
                              }
                            }
                          }
                        }
                      }
                      JOINT RightHandIndex1
                      {
                        OFFSET -8.82167 0.199732 3.47246
                        CHANNELS 3 Zrotation Xrotation Yrotation
                        JOINT RightHandIndex2
                        {
                          OFFSET -4.22532 0 0.000114599
                          CHANNELS 3 Zrotation Xrotation Yrotation
                          JOINT RightHandIndex3
                          {
                            OFFSET -2.65394 0 7.19639e-005
                            CHANNELS 3 Zrotation Xrotation Yrotation
                            JOINT RightHandIndex4
                            {
                              OFFSET -1.95822 0 5.30975e-005
                              CHANNELS 3 Zrotation Xrotation Yrotation
                              End Site
                              {
                                OFFSET 1 0 0
                              }
                            }
                          }
                        }
                      }
                      JOINT RightHandMiddle1
                      {
                        OFFSET -8.80976 0.500893 1.30547
                        CHANNELS 3 Zrotation Xrotation Yrotation
                        JOINT RightHandMiddle2
                        {
                          OFFSET -4.86325 0 0.000131881
                          CHANNELS 3 Zrotation Xrotation Yrotation
                          JOINT RightHandMiddle3
                          {
                            OFFSET -2.76524 0 7.49839e-005
                            CHANNELS 3 Zrotation Xrotation Yrotation
                            JOINT RightHandMiddle4
                            {
                              OFFSET -2.00563 0 5.4389e-005
                              CHANNELS 3 Zrotation Xrotation Yrotation
                              End Site
                              {
                                OFFSET 1 0 0
                              }
                            }
                          }
                        }
                      }
                      JOINT RightHandRing1
                      {
                        OFFSET -8.89383 0.379922 -0.792364
                        CHANNELS 3 Zrotation Xrotation Yrotation
                        JOINT RightHandRing2
                        {
                          OFFSET -4.53776 0 0.000123052
                          CHANNELS 3 Zrotation Xrotation Yrotation
                          JOINT RightHandRing3
                          {
                            OFFSET -2.30453 0 6.2493e-005
                            CHANNELS 3 Zrotation Xrotation Yrotation
                            JOINT RightHandRing4
                            {
                              OFFSET -1.92335 0 5.2155e-005
                              CHANNELS 3 Zrotation Xrotation Yrotation
                              End Site
                              {
                                OFFSET 1 0 0
                              }
                            }
                          }
                        }
                      }
                      JOINT RightHandPinky1
                      {
                        OFFSET -8.8825 -0.313025 -2.48956
                        CHANNELS 3 Zrotation Xrotation Yrotation
                        JOINT RightHandPinky2
                        {
                          OFFSET -3.0478 0 8.26486e-005
                          CHANNELS 3 Zrotation Xrotation Yrotation
                          JOINT RightHandPinky3
                          {
                            OFFSET -1.9769 0 5.36132e-005
                            CHANNELS 3 Zrotation Xrotation Yrotation
                            JOINT RightHandPinky4
                            {
                              OFFSET -1.66864 0 4.52455e-005
                              CHANNELS 3 Zrotation Xrotation Yrotation
                              End Site
                              {
                                OFFSET 1 0 0
                              }
                            }
                          }
                        }
                      }
                    }
                  }
                }
              }
            }
          }
          JOINT Neck
          {
            OFFSET 0 11.5156 1.94702
            CHANNELS 3 Zrotation Xrotation Yrotation
            JOINT Head
            {
              OFFSET -1.26215e-005 11.0733 1.65432
              CHANNELS 3 Zrotation Xrotation Yrotation
              End Site
              {
                OFFSET 0 17.7047 0
              }
            }
          }
        }
      }
    }
  }
}
MOTION
Frames:	4
Frame Time:	0.0416667
-0.347901 96.7718 1.79791 3.45611 -6.10769 -4.18959 -9.22955 -11.0645 -5.78911 6.6312e-019 -6.8208e-017 1.11403 -8.04373e-008 27.9673 4.94512 1.63315e-017 -3.38117e-016 5.53064 1.94131 -9.21066 0.156389 1.74467e-007 -1.06026e-007 3.22852e-016 -6.86092 -9.75453 -1.61311 8.22385e-018 -2.40073e-016 3.92388 -7.54458e-006 75.9784 0.826967 1.18817e-020 9.13059e-018 -0.149119 3.55014 16.9721 -0.533885 0.00291259 9.13908e-008 -4.64579e-012 -1.76226 1.2777 1.6172 -1.59209 2.11365 1.3249 -1.57868 2.1172 1.3354 -1.5656 2.11996 1.34652 -23.5257 0 10.875 -55.807 -4.09368 -6.33952 -0 11.339 0 1.06792 7.79409 -7.82658 -0 13.18 0 -5.7597 0.0863127 -1.71565 0.000223847 6.7711e-005 0.00031712 -9.83015 -0.341591 1.97062 0.000468615 0 0 -0 0 0 -0.000299891 -1.04724e-005 -2.74072e-011 -0.000635687 0 0 -1.60709e-006 0 0 -0 0 0 9.63105e-006 3.36324e-007 1.99644 -2.52587e-005 0 0 -6.05691e-006 0 0 -0 0 0 -0.000157915 -5.51451e-006 1.99644 -2.83165e-006 0 0 1.33216e-005 0 0 -0 0 0 0.000488977 1.70754e-005 2 1.84134e-012 0 0 7.52352e-005 0 0 -0 0 0 5.6477 -8.23863e-016 -6.87834 74.6511 5.05431 10.7215 1.5343e-015 12.3348 -1.65796e-016 -2.917 14.0975 11.8158 -6.4289e-006 20.9112 -2.89978e-006 3.82961 0.0134892 0.403536 0.000323672 -2.9728e-005 0.000141467 10.4896 -0.364257 -1.96656 0.000199292 0 -0 0 0 -0 -5.41963e-006 1.89258e-007 9.1441e-015 0.000654996 0 -0 8.42007e-007 0 -0 0 0 -0 -7.43819e-006 2.59747e-007 1.70955e-014 5.06348e-005 0 -0 6.64766e-006 0 -0 0 0 -0 0.000214797 -7.50088e-006 4.76851e-007 2.49991e-005 0 -0 5.39726e-007 0 -0 0 0 -0 0.00141702 -4.94835e-005 6.11907e-010 1.76423e-005 0 -0 -2.38291e-005 0 -0 0 0 -0 -6.56589 -5.08798 1.77789 3.16202 -4.06463 -0.455806 
-0.737553 97.5584 7.57277 1.44219 -7.27263 -3.39671 -6.76002 -4.95803 -4.08227 5.14256e-019 -6.03141e-017 0.985082 0.000729414 26.6676 4.28682 1.20633e-017 -2.90935e-016 4.75689 2.22508 -12.6591 0.246808 -0.0518517 -0.0505484 -0.000194466 -2.96444 -15.0288 -0.0195904 3.5887e-018 -1.58878e-016 2.59565 0.0235601 76.5111 -1.13527 3.57409e-018 1.60039e-016 -2.61437 -2.20477 11.0707 0.200645 0.00291259 9.13908e-008 -4.64579e-012 -1.70805 1.37639 1.41083 -0.898437 2.31153 0.824246 -0.883017 2.31136 0.841547 -0.868379 2.31041 0.859501 -21.5085 0 8.78005 -57.408 -2.8269 -8.055 -0 12.0763 0 1.31341 7.12853 -10.4677 -0 12.2059 0 -5.06238 0.0716351 -1.6195 0.000223847 6.7711e-005 0.00031712 -9.83015 -0.341591 1.97062 0.000468615 0 0 -0 0 0 -0.000299891 -1.04724e-005 -2.74072e-011 -0.000635687 0 0 -1.60709e-006 0 0 -0 0 0 9.63105e-006 3.36324e-007 1.99644 -2.52587e-005 0 0 -6.05691e-006 0 0 -0 0 0 -0.000157915 -5.51451e-006 1.99644 -2.83165e-006 0 0 1.33216e-005 0 0 -0 0 0 0.000488977 1.70754e-005 2 1.84134e-012 0 0 7.52352e-005 0 0 -0 0 0 6.82719 -9.31143e-016 -7.74326 74.0342 4.41605 7.58985 1.69556e-015 13.5853 -2.01846e-016 -3.00965 15.8449 10.8998 -6.29324e-006 23.3724 -2.95092e-006 6.87933 0.114295 1.91233 0.000323672 -2.9728e-005 0.000141467 10.4896 -0.364257 -1.96656 0.000199292 0 -0 0 0 -0 -5.41963e-006 1.89258e-007 9.1441e-015 0.000654996 0 -0 8.42007e-007 0 -0 0 0 -0 -7.43819e-006 2.59747e-007 1.70955e-014 5.06348e-005 0 -0 6.64766e-006 0 -0 0 0 -0 0.000214797 -7.50088e-006 4.76851e-007 2.49991e-005 0 -0 5.39726e-007 0 -0 0 0 -0 0.00141702 -4.94835e-005 6.11907e-010 1.76423e-005 0 -0 -2.38291e-005 0 -0 0 0 -0 -4.7606 -2.55114 1.31252 1.25921 -4.31513 -0.135482 
-0.56665 97.8356 13.3064 0.391118 -7.03367 -1.6451 -5.60976 -0.614233 -3.47841 1.2583e-019 -3.09241e-017 0.50505 -0.000895645 25.1931 3.61831 9.35087e-018 -2.5547e-016 4.17606 2.7434 -15.1245 0.364185 -0.425397 -0.39398 -0.00286121 -0.791622 -20.9001 0.708843 1.29211e-018 -9.38019e-017 1.53218 -0.00793253 73.0833 -2.25201 8.61629e-018 2.43949e-016 -3.98758 -4.9603 4.3739 0.203565 -0.0768105 0.0252071 -0.000562566 -1.49805 1.28692 0.94214 -0.471585 2.22029 0.323476 -0.459674 2.22022 0.341207 -0.448515 2.21971 0.359433 -18.672 0 7.53831 -58.8183 -1.62361 -10.8745 -0 12.3243 0 1.47068 5.76888 -14.3282 -0 10.2236 0 -3.73728 0.0517971 -1.59424 0.000223847 6.7711e-005 0.00031712 -9.83015 -0.341591 1.97062 0.000468615 0 0 -0 0 0 -0.000299891 -1.04724e-005 -2.74072e-011 -0.000635687 0 0 -1.60709e-006 0 0 -0 0 0 9.63105e-006 3.36324e-007 1.99644 -2.52587e-005 0 0 -6.05691e-006 0 0 -0 0 0 -0.000157915 -5.51451e-006 1.99644 -2.83165e-006 0 0 1.33216e-005 0 0 -0 0 0 0.000488977 1.70754e-005 2 1.84134e-012 0 0 7.52352e-005 0 0 -0 0 0 8.13509 -8.91102e-016 -7.16698 73.1587 2.87332 4.95976 1.65329e-015 13.2588 -1.92159e-016 -2.97827 16.83 10.187 -6.20564e-006 24.9152 -2.98675e-006 8.24455 0.111534 1.66654 0.000323672 -2.9728e-005 0.000141467 10.4896 -0.364257 -1.96656 0.000199292 0 -0 0 0 -0 -5.41963e-006 1.89258e-007 9.1441e-015 0.000654996 0 -0 8.42007e-007 0 -0 0 0 -0 -7.43819e-006 2.59747e-007 1.70955e-014 5.06348e-005 0 -0 6.64766e-006 0 -0 0 0 -0 0.000214797 -7.50088e-006 4.76851e-007 2.49991e-005 0 -0 5.39726e-007 0 -0 0 0 -0 0.00141702 -4.94835e-005 6.11907e-010 1.76423e-005 0 -0 -2.38291e-005 0 -0 0 0 -0 -2.68486 -1.46661 0.811035 0.412233 -4.08203 0.0205582 
-0.053134 97.5612 18.733 0.247184 -5.63662 0.44713 -5.43163 1.88048 -3.39976 2.40587e-020 -1.18356e-017 0.193297 -0.00129701 24.3734 3.04413 6.8891e-018 -2.20131e-016 3.59744 3.59151 -17.635 0.557953 -0.733688 -0.819555 -0.0105422 -0.200235 -26.301 0.556177 2.58169e-019 -4.33272e-017 0.707622 0.023028 64.7717 -2.05156 6.23272e-018 2.07933e-016 -3.398 -6.47983 1.5838 0.0802849 1.10912 -0.349746 0.00780574 -1.64194 1.01819 0.390947 -0.377539 1.83884 -0.210934 -0.370974 1.84264 -0.191116 -0.365088 1.84609 -0.170999 -14.9272 0 5.60137 -60.4389 -0.652941 -13.1291 -0 12.0653 0 1.37185 4.04176 -18.766 -0 7.66735 0 -2.63239 0.0340867 -1.48731 0.000223847 6.7711e-005 0.00031712 -9.83015 -0.341591 1.97062 0.000468615 0 0 -0 0 0 -0.000299891 -1.04724e-005 -2.74072e-011 -0.000635687 0 0 -1.60709e-006 0 0 -0 0 0 9.63105e-006 3.36324e-007 1.99644 -2.52587e-005 0 0 -6.05691e-006 0 0 -0 0 0 -0.000157915 -5.51451e-006 1.99644 -2.83165e-006 0 0 1.33216e-005 0 0 -0 0 0 0.000488977 1.70754e-005 2 1.84134e-012 0 0 7.52352e-005 0 0 -0 0 0 9.94258 -9.46183e-016 -7.35761 71.5684 0.845021 2.3143 1.54495e-015 12.4177 -1.6808e-016 -2.82998 16.7213 9.74883 -6.21183e-006 24.8074 -2.98415e-006 9.33752 0.000842932 0.000470315 0.000323672 -2.9728e-005 0.000141467 10.4896 -0.364257 -1.96656 0.000199292 0 -0 0 0 -0 -5.41963e-006 1.89258e-007 9.1441e-015 0.000654996 0 -0 8.42007e-007 0 -0 0 0 -0 -7.43819e-006 2.59747e-007 1.70955e-014 5.06348e-005 0 -0 6.64766e-006 0 -0 0 0 -0 0.000214797 -7.50088e-006 4.76851e-007 2.49991e-005 0 -0 5.39726e-007 0 -0 0 0 -0 0.00141702 -4.94835e-005 6.11907e-010 1.76423e-005 0 -0 -2.38291e-005 0 -0 0 0 -0 0.330567 -0.554227 0.164389 -0.676824 -4.54395 0.417552 
